<svg width="9301" height="3460" viewBox="0 0 9301 3460" fill="none" xmlns="http://www.w3.org/2000/svg">
<g clip-path="url(#clip0_33_278)">
<mask id="mask0_33_278" style="mask-type:luminance" maskUnits="userSpaceOnUse" x="0" y="0" width="9301" height="3460">
<path d="M9301 0H0V3460H9301V0Z" fill="white"/>
</mask>
<g mask="url(#mask0_33_278)">
<path d="M2684.85 302.469C2718.53 325.185 2751.22 348.881 2782.93 373.948L2510.6 749.559C2479.08 724.296 2446.39 700.405 2412.52 678.275L2684.85 302.664V302.469Z" fill="#0175C2"/>
<path d="M2684.85 302.469C2718.53 325.185 2751.22 348.881 2782.93 373.948L2510.6 749.559C2479.08 724.296 2446.39 700.405 2412.52 678.275L2684.85 302.664V302.469Z" fill="#0175C2"/>
<path d="M1049.22 146.783L1193.33 590.152C1284.76 547.46 1382.07 515.54 1483.87 495.76L1339.77 52.3906C1239.34 75.3034 1142.03 107.028 1049.22 146.783Z" fill="#0175C2"/>
<path d="M1049.22 146.783L1193.33 590.152C1284.76 547.46 1382.07 515.54 1483.87 495.76L1339.77 52.3906C1239.34 75.3034 1142.03 107.028 1049.22 146.783Z" fill="#0175C2"/>
<path d="M2060.07 518.251C2095.51 528.043 2130.16 539.205 2164.23 551.934L2307.54 110.719C2273.28 98.3817 2238.63 87.0232 2203.39 76.8398L2060.07 518.251Z" fill="#0175C2"/>
<path d="M2060.07 518.251C2095.51 528.043 2130.16 539.205 2164.23 551.934L2307.54 110.719C2273.28 98.3817 2238.63 87.0232 2203.39 76.8398L2060.07 518.251Z" fill="#0175C2"/>
<path d="M632.389 1106.96C678.203 1026.68 732.436 951.673 794.306 883.718L418 610.137C358.284 679.854 303.855 754.467 255.691 833.193L632.389 1106.96Z" fill="#0175C2"/>
<path d="M632.389 1106.96C678.203 1026.68 732.436 951.673 794.306 883.718L418 610.137C358.284 679.854 303.855 754.467 255.691 833.193L632.389 1106.96Z" fill="#0175C2"/>
<path d="M873.002 804.964C944.072 739.36 1022.97 682.176 1107.75 634.197L834.04 257.215C751.026 307.545 672.514 364.729 599.289 427.983L873.002 804.769V804.964Z" fill="#0175C2"/>
<path d="M873.002 804.964C944.072 739.36 1022.97 682.176 1107.75 634.197L834.04 257.215C751.026 307.545 672.514 364.729 599.289 427.983L873.002 804.769V804.964Z" fill="#0175C2"/>
<path d="M3337.03 1130.61L2895.72 1274.35C2912.76 1318.03 2927.64 1362.87 2939.78 1408.89L3380.89 1265.14C3368.16 1219.52 3353.48 1174.47 3337.03 1130.42V1130.61Z" fill="#0175C2"/>
<path d="M3337.03 1130.61L2895.72 1274.35C2912.76 1318.03 2927.64 1362.87 2939.78 1408.89L3380.89 1265.14C3368.16 1219.52 3353.48 1174.47 3337.03 1130.42V1130.61Z" fill="#0175C2"/>
<path d="M467.145 1729.87C467.145 1687.77 469.299 1646.45 473.411 1605.32H8.41329C5.47647 1646.45 3.91016 1687.97 3.91016 1729.87C3.91016 1771.78 5.47647 1813.3 8.41329 1854.42H473.215C469.104 1813.5 466.95 1771.98 466.95 1729.87H467.145Z" fill="#0175C2"/>
<path d="M467.145 1729.87C467.145 1687.77 469.299 1646.45 473.411 1605.32H8.41329C5.47647 1646.45 3.91016 1687.97 3.91016 1729.87C3.91016 1771.78 5.47647 1813.3 8.41329 1854.42H473.215C469.104 1813.5 466.95 1771.98 466.95 1729.87H467.145Z" fill="#0175C2"/>
<path d="M2981.27 1729.86C2981.27 1756.3 2980.09 1782.35 2978.53 1808.39H3442.55C3443.72 1782.35 3444.3 1756.3 3444.3 1729.86C3444.3 1703.43 3443.52 1677.38 3442.55 1651.33H2978.53C2980.09 1677.38 2981.27 1703.43 2981.27 1729.86Z" fill="#0175C2"/>
<path d="M2981.27 1729.86C2981.27 1756.3 2980.09 1782.35 2978.53 1808.39H3442.55C3443.72 1782.35 3444.3 1756.3 3444.3 1729.86C3444.3 1703.43 3443.52 1677.38 3442.55 1651.33H2978.53C2980.09 1677.38 2981.27 1703.43 2981.27 1729.86Z" fill="#0175C2"/>
<path d="M494.55 1468.06C512.955 1381.31 540.365 1298.08 575.607 1218.96L132.929 1075.02C99.8405 1155.32 72.8219 1238.54 52.0684 1324.32L494.55 1468.06Z" fill="#0175C2"/>
<path d="M494.55 1468.06C512.955 1381.31 540.365 1298.08 575.607 1218.96L132.929 1075.02C99.8405 1155.32 72.8219 1238.54 52.0684 1324.32L494.55 1468.06Z" fill="#0175C2"/>
<path d="M2700.72 938.316C2728.92 973.174 2755.15 1009.41 2779.62 1047.2L3155.34 774.794C3130.47 737.39 3104.05 701.16 3076.43 665.91L2700.72 938.121V938.316Z" fill="#0175C2"/>
<path d="M2700.72 938.316C2728.92 973.174 2755.15 1009.41 2779.62 1047.2L3155.34 774.794C3130.47 737.39 3104.05 701.16 3076.43 665.91L2700.72 938.121V938.316Z" fill="#0175C2"/>
<path d="M1563.38 16.9383V483.22C1584.52 480.479 1651.68 472.645 1724.12 472.645C1804.01 472.645 1863.72 480.479 1884.87 483.22V16.9383C1858.63 14.5884 1793.43 9.30078 1724.12 9.30078C1639.93 9.30078 1589.62 14.3925 1563.38 16.9383Z" fill="#0175C2"/>
<path d="M1563.38 16.9383V483.22C1584.52 480.479 1651.68 472.645 1724.12 472.645C1804.01 472.645 1863.72 480.479 1884.87 483.22V16.9383C1858.63 14.5884 1793.43 9.30078 1724.12 9.30078C1639.93 9.30078 1589.62 14.3925 1563.38 16.9383Z" fill="#0175C2"/>
<path d="M2544.45 2682.25C2498.25 2722 2449.3 2758.62 2397.61 2791.32L2671.13 3166.54C2722.03 3132.85 2771.37 3096.63 2818.36 3057.85L2544.64 2682.25H2544.45Z" fill="#0175C2"/>
<path d="M2544.45 2682.25C2498.25 2722 2449.3 2758.62 2397.61 2791.32L2671.13 3166.54C2722.03 3132.85 2771.37 3096.63 2818.36 3057.85L2544.64 2682.25H2544.45Z" fill="#0175C2"/>
<path d="M570.338 2229.27C539.208 2157.6 514.734 2082.2 497.505 2004.26L55.2188 2148C74.406 2225.16 98.8796 2300.36 128.248 2373.01L570.534 2229.27H570.338Z" fill="#0175C2"/>
<path d="M570.338 2229.27C539.208 2157.6 514.734 2082.2 497.505 2004.26L55.2188 2148C74.406 2225.16 98.8796 2300.36 128.248 2373.01L570.534 2229.27H570.338Z" fill="#0175C2"/>
<path d="M2198.52 2894.32C2142.32 2917.23 2084.37 2936.23 2024.46 2950.91L2167.97 3392.72C2227.29 3376.85 2285.44 3358.06 2342.02 3336.12L2198.52 2894.32Z" fill="#0175C2"/>
<path d="M2198.52 2894.32C2142.32 2917.23 2084.37 2936.23 2024.46 2950.91L2167.97 3392.72C2227.29 3376.85 2285.44 3358.06 2342.02 3336.12L2198.52 2894.32Z" fill="#0175C2"/>
<path d="M2942.69 2039.5C2928.99 2093.35 2911.76 2145.64 2891.4 2196.56L3332.9 2340.29C3352.29 2288.99 3369.31 2236.7 3384 2183.23L2942.69 2039.69V2039.5Z" fill="#0175C2"/>
<path d="M2942.69 2039.5C2928.99 2093.35 2911.76 2145.64 2891.4 2196.56L3332.9 2340.29C3352.29 2288.99 3369.31 2236.7 3384 2183.23L2942.69 2039.69V2039.5Z" fill="#0175C2"/>
<path d="M2789.98 2396.33C2759.04 2445.68 2724.97 2492.68 2687.78 2536.94L3063.49 2809.54C3099.91 2764.5 3133.97 2717.5 3165.69 2668.93L2789.98 2396.33Z" fill="#0175C2"/>
<path d="M2789.98 2396.33C2759.04 2445.68 2724.97 2492.68 2687.78 2536.94L3063.49 2809.54C3099.91 2764.5 3133.97 2717.5 3165.69 2668.93L2789.98 2396.33Z" fill="#0175C2"/>
<path d="M801.162 3182.19L1074.09 2806.38C1013 2769.37 955.443 2727.07 901.798 2680.46L628.672 3056.66C683.493 3101.9 741.055 3143.81 801.162 3182.19Z" fill="#0175C2"/>
<path d="M801.162 3182.19L1074.09 2806.38C1013 2769.37 955.443 2727.07 901.798 2680.46L628.672 3056.66C683.493 3101.9 741.055 3143.81 801.162 3182.19Z" fill="#0175C2"/>
<path d="M777.472 2556.68C728.329 2500.28 683.885 2439.77 645.119 2375.14L269.205 2648.33C309.342 2711.79 353.591 2772.49 401.363 2830.07L777.472 2556.68Z" fill="#0175C2"/>
<path d="M777.472 2556.68C728.329 2500.28 683.885 2439.77 645.119 2375.14L269.205 2648.33C309.342 2711.79 353.591 2772.49 401.363 2830.07L777.472 2556.68Z" fill="#0175C2"/>
<path d="M1433.36 2953.07C1366.99 2937.4 1302.38 2916.45 1240.51 2890.6L1097 3332.59C1159.65 3357.08 1223.87 3378.03 1289.85 3395.26L1433.56 2953.07H1433.36Z" fill="#0175C2"/>
<path d="M1433.36 2953.07C1366.99 2937.4 1302.38 2916.45 1240.51 2890.6L1097 3332.59C1159.65 3357.08 1223.87 3378.03 1289.85 3395.26L1433.56 2953.07H1433.36Z" fill="#0175C2"/>
<path d="M1820.42 3447.95V2983.23C1788.71 2985.58 1756.6 2987.34 1724.1 2987.34C1691.6 2987.34 1659.68 2985.78 1627.76 2983.23V3447.95C1659.68 3449.71 1691.79 3450.69 1724.1 3450.69C1756.4 3450.69 1788.5 3449.71 1820.42 3447.95Z" fill="#0175C2"/>
<path d="M1820.42 3447.95V2983.23C1788.71 2985.58 1756.6 2987.34 1724.1 2987.34C1691.6 2987.34 1659.68 2985.78 1627.76 2983.23V3447.95C1659.68 3449.71 1691.79 3450.69 1724.1 3450.69C1756.4 3450.69 1788.5 3449.71 1820.42 3447.95Z" fill="#0175C2"/>
<path d="M1524.21 995.731C1500.9 1002 1477.8 1009.43 1455.48 1018.06L1325.28 617.574C1347.8 609.545 1370.9 602.103 1394 595.446L1524.21 995.731ZM1724.11 548.445C1695.91 548.445 1667.91 549.816 1640.1 551.774V973.795C1667.72 970.664 1695.72 969.098 1724.11 969.098C1752.49 969.098 1780.49 970.86 1808.1 973.795V551.774C1780.29 549.816 1752.3 548.445 1724.11 548.445ZM2165.8 634.025C2115.68 613.854 2063.99 596.816 2010.74 583.499L1880.34 985.157C1934.38 996.518 1986.26 1013.56 2035.4 1035.69L2165.8 634.025ZM2480.83 822.81C2440.5 789.126 2397.62 758.184 2352.98 729.984L2104.91 1071.52C2150.73 1098.15 2193.61 1129.1 2232.76 1164.35L2480.83 822.81ZM1061.75 751.526C1040.41 766.017 1019.66 781.488 999.298 797.155L1246.77 1137.71C1266.74 1121.46 1287.69 1106.37 1309.42 1092.28L1061.75 751.526ZM2722.63 1098.94C2695.21 1055.66 2665.45 1014.33 2632.76 975.165L2291.3 1223.29C2325.17 1261.29 2355.33 1302.8 2381.17 1347.06L2722.43 1098.94H2722.63ZM588.137 1406L988.529 1536.04C995.964 1507.65 1005.17 1480.03 1015.74 1453L614.96 1322.78C604.975 1349.99 596.165 1377.81 588.333 1406H588.137ZM2481.41 1801.4H2903.15C2904.52 1777.7 2905.49 1754.01 2905.49 1729.91C2905.49 1705.83 2904.52 1682.13 2903.15 1658.44H2481.41C2483.57 1681.94 2484.94 1705.83 2484.94 1729.91C2484.94 1754.01 2483.76 1777.9 2481.41 1801.4ZM794.302 1001.81C777.465 1023.34 761.019 1045.47 745.551 1068.19L1086.42 1315.72C1101.49 1292.62 1117.55 1270.49 1134.97 1249.14L794.499 1002L794.302 1001.81ZM965.031 1683.7H544.085C543.498 1698.98 542.91 1714.44 542.91 1729.91C542.91 1745.38 543.498 1760.86 544.085 1776.14H965.031C964.051 1760.86 963.464 1745.38 963.464 1729.91C963.464 1714.44 964.051 1698.98 965.031 1683.7ZM986.955 2652.89C1014.95 2675.21 1043.94 2696.36 1073.89 2716.33L1321.36 2375.39C1290.83 2356.39 1261.84 2335.24 1234.44 2312.13L986.955 2652.89ZM1306.09 2835.21C1340.95 2848.52 1376.77 2860.08 1413.19 2869.87L1543.39 2468.99C1506.59 2459.98 1470.75 2448.44 1436.29 2434.33L1306.09 2835.21ZM739.09 2382.04C758.082 2410.64 778.248 2438.25 799.393 2464.88L1139.87 2217.34C1117.94 2191.1 1097.97 2163.3 1079.76 2134.31L739.09 2382.04ZM586.767 2048.74C595.578 2080.27 605.367 2111.2 616.722 2141.55L1017.5 2011.33C1005.56 1981.36 995.381 1950.43 987.159 1918.7L586.767 2048.74ZM1724.11 2911.58C1743.87 2911.58 1763.46 2911 1782.84 2910.01V2488.38C1763.46 2489.95 1743.87 2490.93 1724.11 2490.93C1704.33 2490.93 1684.75 2489.95 1665.36 2488.38V2910.01C1684.95 2911 1704.52 2911.58 1724.11 2911.58ZM2868.49 1435.77C2856.15 1387.6 2840.49 1340.79 2822.48 1295.17L2421.3 1425.59C2440.88 1470.43 2456.15 1517.43 2466.92 1566.19L2868.49 1435.77ZM2030.11 2871.24C2069.87 2860.66 2108.83 2847.93 2146.81 2833.24L2016.61 2432.37C1979.22 2448.04 1940.06 2460.57 1899.92 2470.17L2030.32 2871.24H2030.11ZM2824.43 2159.96C2841.07 2117.47 2855.56 2073.8 2867.31 2028.95L2465.95 1898.53C2455.76 1943.97 2441.47 1987.83 2423.46 2029.74L2824.43 2159.96ZM2639.22 2477.02C2667.22 2442.75 2693.06 2406.72 2717.14 2369.51L2376.27 2121.78C2353.37 2159.96 2327.13 2195.61 2297.96 2229.09L2639.22 2477.02ZM2365.7 2721.81C2401.53 2698.51 2435.99 2673.64 2469.08 2646.81L2221.21 2305.67C2189.1 2333.48 2154.64 2358.74 2118.03 2381.06L2365.7 2722.01V2721.81Z" fill="#0175C2"/>
<path d="M4035.72 1416.3H4275.56V2801.04H4035.72V1416.3Z" fill="#0175C2"/>
<path d="M4556.14 2116.77C4556.14 1699.65 4872.33 1383.56 5281.14 1383.56C5518.24 1383.56 5738.9 1487.17 5872.43 1677.91L5681.72 1822.43C5569.93 1672.42 5430.92 1601.73 5278.4 1601.73C5014.08 1601.73 4804.2 1811.66 4804.2 2108.74C4804.2 2405.83 5019.57 2615.76 5281.14 2615.76C5450.11 2615.76 5602.63 2531.16 5708.94 2384.09L5891.61 2517.65C5758.09 2719.36 5534.69 2833.91 5278.4 2833.91C4861.37 2833.91 4556.14 2531.35 4556.14 2116.97V2116.77Z" fill="#0175C2"/>
<path d="M7436.77 2163.18H6281.23C6300.22 2454.78 6493.85 2621.05 6771.67 2621.05C6959.63 2621.05 7112.35 2544.67 7229.42 2386.63L7401.14 2517.45C7267.61 2716.42 7044.21 2833.72 6766.19 2833.72C6332.91 2833.72 6035.9 2542.13 6035.9 2119.51C6035.9 1696.91 6346.62 1383.56 6768.93 1383.56C7164.03 1383.56 7444.79 1653.42 7444.79 2059.58C7444.79 2100.52 7442.05 2130.48 7436.57 2163.18H7436.77ZM6294.93 1955.99H7199.66C7164.23 1716.09 7006.23 1590.76 6769.13 1590.76C6532.03 1590.76 6349.36 1724.32 6294.93 1955.99Z" fill="#0175C2"/>
<path d="M7632.94 2613.04L7785.46 2433.07C7916.25 2555.67 8087.96 2618.53 8248.7 2618.53C8434.11 2618.53 8545.71 2533.93 8545.71 2419.56C8545.71 2337.7 8485.8 2272.29 8308.61 2231.55L8066.03 2177.12C7788.01 2114.45 7670.93 1994.4 7670.93 1806.4C7670.93 1555.53 7878.07 1383.98 8202.3 1383.98C8425.7 1383.98 8632.83 1463.1 8763.62 1604.69L8602.88 1770.96C8488.34 1656.39 8346.79 1599.21 8185.85 1599.21C8003.19 1599.21 7905.09 1675.58 7905.09 1787.21C7905.09 1869.07 7956.78 1920.77 8147.68 1964.43L8390.26 2018.88C8671.02 2081.55 8779.87 2209.63 8779.87 2400.56C8779.87 2659.46 8580.96 2833.94 8240.28 2833.94C8003.19 2833.94 7771.56 2749.34 7632.55 2613.24L7632.94 2613.04Z" fill="#0175C2"/>
<path d="M9055.36 1416.3H9295.19V2801.04H9055.36V1416.3Z" fill="#0175C2"/>
<path d="M4035.72 889.498V647.836H4108.17V881.859C4108.17 954.318 4143.8 988.78 4204.1 988.78C4264.41 988.78 4299.65 954.318 4299.65 881.859V647.836H4372.68V889.498C4372.68 997.595 4308.26 1057.52 4204.1 1057.52C4099.94 1057.52 4035.72 997.79 4035.72 889.498Z" fill="#0175C2"/>
<path d="M4741.91 873.805V1050.45H4673V888.884C4673 838.36 4648.92 812.902 4610.35 812.902C4585.09 812.902 4558.66 823.28 4537.91 847.368V1050.45H4468.99V755.914H4537.91V780.588C4561.99 760.417 4594.29 748.863 4627.58 748.863C4695.52 748.863 4741.91 794.297 4741.91 873.61V873.805Z" fill="#0175C2"/>
<path d="M4823.56 672.487C4823.56 648.987 4843.73 628.816 4868.4 628.816C4893.06 628.816 4912.05 648.987 4912.05 672.487C4912.05 695.988 4892.48 716.746 4868.4 716.746C4844.31 716.746 4823.56 697.163 4823.56 672.487ZM4833.35 755.913H4902.27V1050.45H4833.35V755.913Z" fill="#0175C2"/>
<path d="M5277.21 755.926L5155.83 1050.46H5082.21L4960.23 755.926H5036.79L5119.02 965.86L5201.25 755.926H5277.21Z" fill="#0175C2"/>
<path d="M5613 920.445H5380.21C5385.89 970.383 5419.96 997.994 5470.47 997.994C5504.34 997.994 5533.12 985.262 5557.4 956.087L5605.75 992.901C5574.62 1034.81 5527.05 1057.33 5469.49 1057.33C5374.14 1057.33 5311.29 995.253 5311.29 905.561C5311.29 815.87 5376.88 749.09 5468.9 749.09C5554.66 749.09 5614.96 805.491 5614.96 894.595C5614.96 903.799 5614.37 911.828 5613.2 920.445H5613ZM5383.54 868.745H5545.06C5537.62 827.424 5509.43 807.253 5467.92 807.253C5426.42 807.253 5394.31 829.186 5383.35 868.745H5383.54Z" fill="#0175C2"/>
<path d="M5873.39 753.203L5869.28 817.045C5859.48 815.282 5850.29 814.107 5842.26 814.107C5808.97 814.107 5779.6 828.991 5761.21 858.954V1050.48H5692.28V755.945H5761.21V787.67C5780.2 762.994 5811.33 749.09 5842.84 749.09C5852.05 749.09 5862.42 750.265 5873.39 753.203Z" fill="#0175C2"/>
<path d="M5918.81 1014.22L5954.43 962.518C5984.97 986.021 6020.02 998.16 6051.54 998.16C6083.06 998.16 6102.06 984.845 6102.06 966.435C6102.06 952.727 6091.68 942.347 6061.13 935.298L6010.03 923.156C5950.71 909.447 5926.63 883.402 5926.63 842.668C5926.63 786.855 5971.47 748.863 6044.5 748.863C6092.86 748.863 6137.1 764.921 6166.47 791.947L6129.07 840.905C6101.46 818.972 6071.52 808.201 6041.76 808.201C6012 808.201 5994.57 820.342 5994.57 838.163C5994.57 851.48 6003.78 859.509 6035.49 866.951L6086.59 879.093C6146.31 892.801 6170.59 920.022 6170.59 961.931C6170.59 1019.5 6126.33 1057.5 6049.19 1057.5C5998.68 1057.5 5949.74 1040.86 5918.61 1014.41L5918.81 1014.22Z" fill="#0175C2"/>
<path d="M6235.2 672.487C6235.2 648.987 6255.36 628.816 6280.03 628.816C6304.7 628.816 6323.69 648.987 6323.69 672.487C6323.69 695.988 6304.11 716.746 6280.03 716.746C6255.95 716.746 6235.2 697.163 6235.2 672.487ZM6244.98 755.913H6313.9V1050.45H6244.98V755.913Z" fill="#0175C2"/>
<path d="M6690.62 626.086V1050.46H6621.7V1027.94C6599.18 1046.93 6568.84 1057.31 6537.12 1057.31C6456.64 1057.31 6390.47 992.885 6390.47 903.191C6390.47 813.499 6456.64 749.07 6537.12 749.07C6568.63 749.07 6599.18 759.449 6621.7 778.445V626.086H6690.62ZM6621.51 959.592V846.791C6602.5 823.878 6574.9 812.911 6547.3 812.911C6498.35 812.911 6460.37 847.966 6460.37 903.191C6460.37 958.417 6498.35 994.061 6547.3 994.061C6574.9 994.061 6602.5 982.505 6621.51 959.592Z" fill="#0175C2"/>
<path d="M7067.7 755.945V1050.48H6998.77V1027.96C6976.26 1046.96 6945.91 1057.33 6914.2 1057.33C6833.73 1057.33 6767.55 992.901 6767.55 903.211C6767.55 813.52 6833.73 749.09 6914.2 749.09C6945.91 749.09 6976.26 759.469 6998.77 778.465V755.945H7067.7ZM6998.77 959.612V846.811C6979.78 823.899 6952.18 812.932 6924.57 812.932C6875.63 812.932 6837.64 847.987 6837.64 903.211C6837.64 958.437 6875.63 994.077 6924.57 994.077C6952.18 994.077 6979.78 982.521 6998.77 959.612Z" fill="#0175C2"/>
<path d="M7444.99 626.086V1050.46H7376.07V1027.94C7353.55 1046.93 7323.21 1057.31 7291.49 1057.31C7211.03 1057.31 7144.84 992.885 7144.84 903.191C7144.84 813.499 7211.03 749.07 7291.49 749.07C7323.21 749.07 7353.55 759.449 7376.07 778.445V626.086H7444.99ZM7375.88 959.592V846.791C7356.89 823.878 7329.28 812.911 7301.67 812.911C7252.72 812.911 7214.74 847.966 7214.74 903.191C7214.74 958.417 7252.72 994.061 7301.67 994.061C7329.28 994.061 7356.89 982.505 7375.88 959.592Z" fill="#0175C2"/>
</g>
</g>
<defs>
<clipPath id="clip0_33_278">
<rect width="9301" height="3460" fill="white"/>
</clipPath>
</defs>
</svg>
